<?xml version="1.0" standalone="no"?>
<!DOCTYPE svg PUBLIC "-//W3C//DTD SVG 20010904//EN"
 "http://www.w3.org/TR/2001/REC-SVG-20010904/DTD/svg10.dtd">
<svg version="1.0" xmlns="http://www.w3.org/2000/svg"
 width="500.000000pt" height="500.000000pt" viewBox="0 0 500.000000 500.000000"
 preserveAspectRatio="xMidYMid meet">
<metadata>
Created by potrace 1.11, written by Peter Selinger 2001-2013
</metadata>
<g transform="translate(0.000000,500.000000) scale(0.100000,-0.100000)"
fill="#000000" stroke="none">
<path d="M0 2500 l0 -2500 2500 0 2500 0 0 2500 0 2500 -2500 0 -2500 0 0
-2500z m2683 1420 c221 -18 366 -69 547 -192 107 -72 138 -108 146 -169 13
-107 -96 -189 -200 -149 -14 5 -58 34 -98 65 -90 68 -191 119 -283 141 -104
26 -324 24 -428 -4 -144 -39 -264 -108 -375 -216 -428 -413 -370 -1145 116
-1473 158 -107 305 -148 496 -140 148 6 221 24 354 88 l102 49 0 275 0 274
-243 3 -244 3 -36 28 c-71 54 -70 161 2 215 l34 27 342 3 341 3 34 -23 c18
-13 43 -36 54 -51 21 -28 21 -38 21 -450 0 -361 -2 -425 -15 -443 -17 -24 -92
-84 -156 -126 -332 -215 -829 -229 -1180 -33 -316 177 -537 495 -600 861 -23
133 -15 394 14 515 57 233 161 420 326 585 193 193 445 313 701 334 49 4 95 8
100 8 6 1 63 -3 128 -8z m-764 -2716 c16 -12 20 -19 12 -27 -8 -8 -14 -8 -23
1 -7 7 -27 12 -45 12 -72 0 -108 -85 -62 -144 16 -20 29 -26 59 -26 25 0 40 5
44 16 13 33 6 44 -24 44 -20 0 -30 5 -30 16 0 12 9 14 43 12 42 -3 42 -3 45
-45 4 -51 -22 -73 -83 -73 -64 1 -105 45 -105 115 0 43 24 89 54 104 32 15 89
13 115 -5z m289 -87 c2 -77 6 -97 17 -97 8 0 15 -7 15 -15 0 -20 -34 -19 -51
1 -14 17 -26 172 -15 199 3 9 12 15 19 13 8 -3 13 -35 15 -101z m462 83 c0 -4
-6 -13 -14 -19 -17 -14 -31 2 -22 24 5 15 36 10 36 -5z m-570 -60 c21 -11 40
-60 40 -106 0 -37 -14 -51 -35 -34 -9 7 -15 8 -20 0 -10 -16 -61 -12 -86 9
-18 14 -24 29 -24 61 0 32 6 47 24 61 25 21 71 25 101 9z m297 -12 c19 -18 23
-32 23 -80 0 -54 -10 -72 -26 -47 -4 8 -9 8 -17 0 -21 -21 -74 -13 -96 15 -63
80 42 181 116 112z m103 -10 l27 -32 19 32 c18 31 44 43 44 21 0 -6 -9 -22
-20 -36 -11 -14 -20 -31 -20 -38 0 -6 9 -20 20 -30 21 -19 27 -45 11 -45 -5 0
-21 13 -34 30 l-26 30 -24 -31 c-14 -18 -29 -29 -36 -25 -7 5 -3 18 15 41 l26
35 -26 31 c-14 17 -26 35 -26 40 0 19 24 8 50 -23z m160 -48 c0 -64 -3 -80
-15 -80 -12 0 -15 16 -15 80 0 64 3 80 15 80 12 0 15 -16 15 -80z m180 60 c11
-11 20 -31 20 -45 0 -24 -3 -25 -60 -25 -33 0 -60 -4 -60 -9 0 -20 32 -33 70
-28 29 4 40 1 40 -8 0 -7 -7 -16 -16 -19 -86 -33 -159 57 -103 128 26 33 79
36 109 6z m181 7 c31 -24 41 -55 29 -93 -13 -38 -35 -54 -77 -54 -63 0 -99 61
-69 118 9 17 21 32 28 35 24 10 73 6 89 -6z m209 -9 c26 -28 30 -138 5 -138
-11 0 -15 13 -15 54 0 61 -14 79 -57 74 -27 -3 -28 -5 -31 -65 -2 -47 -7 -63
-17 -63 -12 0 -15 17 -15 78 l0 78 55 2 c44 1 59 -3 75 -20z m-919 -328 c10
-6 19 -17 19 -25 0 -17 -16 -20 -25 -5 -3 6 -23 10 -44 10 -76 0 -114 -89 -60
-146 19 -20 31 -25 59 -21 19 2 43 7 53 11 12 6 17 4 17 -8 0 -39 -100 -50
-143 -15 -35 27 -52 89 -37 135 20 60 105 93 161 64z m196 -82 c19 -18 23 -32
23 -80 0 -45 -3 -58 -15 -58 -8 0 -15 5 -15 12 0 9 -3 9 -12 0 -22 -22 -75
-14 -97 14 -63 80 42 181 116 112z m181 10 c-3 -7 -20 -15 -39 -18 -34 -5 -34
-6 -39 -64 -7 -78 -29 -89 -32 -14 -1 57 -1 90 1 98 0 3 26 7 57 8 41 2 55 -1
52 -10z m152 -8 c11 -11 20 -31 20 -45 0 -24 -3 -25 -60 -25 -33 0 -60 -4 -60
-9 0 -20 32 -33 70 -28 29 4 40 1 40 -8 0 -7 -7 -16 -16 -19 -86 -33 -159 57
-103 128 26 33 79 36 109 6z"/>
<path d="M2014 1096 c-15 -24 -15 -28 0 -52 22 -33 65 -30 83 6 27 55 -49 97
-83 46z"/>
<path d="M2298 1095 c-17 -37 3 -75 40 -75 35 0 52 16 52 50 0 34 -17 50 -52
50 -21 0 -32 -7 -40 -25z"/>
<path d="M2761 1114 c-29 -21 -18 -33 30 -32 30 0 39 4 37 16 -5 24 -43 33
-67 16z"/>
<path d="M2929 1093 c-15 -40 3 -73 39 -73 35 0 52 16 52 50 0 34 -17 50 -52
50 -22 0 -31 -6 -39 -27z"/>
<path d="M2408 685 c-17 -37 3 -75 40 -75 35 0 52 16 52 50 0 34 -17 50 -52
50 -21 0 -32 -7 -40 -25z"/>
<path d="M2761 704 c-33 -23 -25 -34 25 -34 37 0 45 3 42 16 -5 25 -42 35 -67
18z"/>
</g>
</svg>
