<svg id="Capa_1" enable-background="new 0 0 512 512" height="512" viewBox="0 0 512 512" width="512" xmlns="http://www.w3.org/2000/svg"><g><path d="m490.432 155.416v263.564c0 51.374-41.639 93.012-93.012 93.012h-282.838c-51.374 0-93.012-41.639-93.012-93.012v-263.564l231.125-18.467z" fill="#f9f6f9"/><path d="m203.647 512h-89.067c-51.374 0-93.012-41.639-93.012-93.012v-263.572c0-51.363 41.639-93.012 93.012-93.012h89.067c-51.374 0-93.012 41.649-93.012 93.012v263.572c-.001 51.373 41.638 93.012 93.012 93.012z" fill="#dddaec"/><g><g><g fill="#9dc6fb"><circle cx="84.982" cy="411.76" r="31.769"/><circle cx="84.982" cy="323.239" r="31.769"/></g><g fill="#80b4fb"><path d="m96.664 441.314c-3.616 1.432-7.551 2.215-11.682 2.215-17.554 0-31.77-14.226-31.77-31.77 0-17.543 14.216-31.77 31.77-31.77 4.131 0 8.066.783 11.682 2.215-11.764 4.656-20.078 16.132-20.078 29.555s8.314 24.899 20.078 29.555z"/><path d="m96.664 352.794c-3.616 1.432-7.551 2.215-11.682 2.215-17.554 0-31.77-14.226-31.77-31.77 0-17.543 14.216-31.77 31.77-31.77 4.131 0 8.066.783 11.682 2.215-11.764 4.656-20.078 16.132-20.078 29.555 0 13.422 8.314 24.898 20.078 29.555z"/></g></g><g><g fill="#9dc6fb"><circle cx="170.491" cy="411.76" r="31.769"/><circle cx="170.491" cy="234.718" r="31.769"/><circle cx="170.491" cy="323.239" r="31.769"/></g><g fill="#80b4fb"><path d="m182.174 441.314c-3.616 1.432-7.551 2.215-11.682 2.215-17.554 0-31.77-14.226-31.77-31.77 0-17.543 14.216-31.77 31.77-31.77 4.131 0 8.066.783 11.682 2.215-11.764 4.656-20.078 16.132-20.078 29.555s8.313 24.899 20.078 29.555z"/><path d="m182.174 264.273c-3.616 1.432-7.551 2.215-11.682 2.215-17.554 0-31.77-14.226-31.77-31.77 0-17.543 14.216-31.77 31.77-31.77 4.131 0 8.066.783 11.682 2.215-11.764 4.656-20.078 16.132-20.078 29.555s8.313 24.899 20.078 29.555z"/><path d="m182.174 352.794c-3.616 1.432-7.551 2.215-11.682 2.215-17.554 0-31.77-14.226-31.77-31.77 0-17.543 14.216-31.77 31.77-31.77 4.131 0 8.066.783 11.682 2.215-11.764 4.656-20.078 16.132-20.078 29.555 0 13.422 8.313 24.898 20.078 29.555z"/></g></g><g><g fill="#9dc6fb"><circle cx="256.001" cy="411.76" r="31.769"/><circle cx="256.001" cy="234.718" r="31.769"/><circle cx="256.001" cy="323.239" r="31.769"/></g><g fill="#80b4fb"><path d="m267.683 441.314c-3.616 1.432-7.551 2.215-11.682 2.215-17.554 0-31.77-14.226-31.77-31.77 0-17.543 14.216-31.77 31.77-31.77 4.131 0 8.066.783 11.682 2.215-11.764 4.656-20.078 16.132-20.078 29.555.001 13.423 8.314 24.899 20.078 29.555z"/><path d="m267.683 264.273c-3.616 1.432-7.551 2.215-11.682 2.215-17.554 0-31.77-14.226-31.77-31.77 0-17.543 14.216-31.77 31.77-31.77 4.131 0 8.066.783 11.682 2.215-11.764 4.656-20.078 16.132-20.078 29.555.001 13.423 8.314 24.899 20.078 29.555z"/><path d="m267.683 352.794c-3.616 1.432-7.551 2.215-11.682 2.215-17.554 0-31.77-14.226-31.77-31.77 0-17.543 14.216-31.77 31.77-31.77 4.131 0 8.066.783 11.682 2.215-11.764 4.656-20.078 16.132-20.078 29.555.001 13.422 8.314 24.898 20.078 29.555z"/></g></g><g><g fill="#9dc6fb"><circle cx="341.511" cy="411.76" r="31.769"/><circle cx="341.511" cy="234.718" r="31.769"/><circle cx="341.511" cy="323.239" r="31.769"/></g><g fill="#80b4fb"><path d="m353.193 441.314c-3.616 1.432-7.551 2.215-11.682 2.215-17.554 0-31.77-14.226-31.77-31.77 0-17.543 14.216-31.77 31.77-31.77 4.131 0 8.066.783 11.682 2.215-11.764 4.656-20.078 16.132-20.078 29.555.001 13.423 8.314 24.899 20.078 29.555z"/><path d="m353.193 264.273c-3.616 1.432-7.551 2.215-11.682 2.215-17.554 0-31.77-14.226-31.77-31.77 0-17.543 14.216-31.77 31.77-31.77 4.131 0 8.066.783 11.682 2.215-11.764 4.656-20.078 16.132-20.078 29.555.001 13.423 8.314 24.899 20.078 29.555z"/><path d="m353.193 352.794c-3.616 1.432-7.551 2.215-11.682 2.215-17.554 0-31.77-14.226-31.77-31.77 0-17.543 14.216-31.77 31.77-31.77 4.131 0 8.066.783 11.682 2.215-11.764 4.656-20.078 16.132-20.078 29.555.001 13.422 8.314 24.898 20.078 29.555z"/></g></g><g><g fill="#dd5790"><circle cx="427.021" cy="234.718" r="31.769"/><circle cx="427.021" cy="323.239" r="31.769"/></g><g fill="#da387d"><path d="m438.703 264.273c-3.616 1.432-7.551 2.215-11.682 2.215-17.554 0-31.77-14.226-31.77-31.77 0-17.543 14.216-31.77 31.77-31.77 4.131 0 8.066.783 11.682 2.215-11.764 4.656-20.078 16.132-20.078 29.555s8.314 24.899 20.078 29.555z"/><path d="m438.703 352.794c-3.616 1.432-7.551 2.215-11.682 2.215-17.554 0-31.77-14.226-31.77-31.77 0-17.543 14.216-31.77 31.77-31.77 4.131 0 8.066.783 11.682 2.215-11.764 4.656-20.078 16.132-20.078 29.555 0 13.422 8.314 24.898 20.078 29.555z"/></g></g></g><path d="m490.432 136.131v19.284h-468.862v-19.284c0-51.363 41.639-93.012 93.012-93.012h282.838c51.374 0 93.012 41.649 93.012 93.012z" fill="#dd5790"/><path d="m203.649 43.129c-51.374 0-93.012 41.649-93.012 93.012v19.274h-89.067v-19.284c0-51.363 41.639-93.012 93.012-93.012h89.046z" fill="#da387d"/><g fill="#ffe07d"><path d="m134.047.007c-13.622 0-24.665 11.043-24.665 24.665v44.484c0 13.622 11.043 24.665 24.665 24.665 13.622 0 24.665-11.043 24.665-24.665v-44.484c0-13.622-11.043-24.665-24.665-24.665z"/><path d="m215.35.007c-13.622 0-24.665 11.043-24.665 24.665v44.484c0 13.622 11.043 24.665 24.665 24.665 13.622 0 24.665-11.043 24.665-24.665v-44.484c-.001-13.622-11.043-24.665-24.665-24.665z"/><path d="m296.652.007c-13.622 0-24.665 11.043-24.665 24.665v44.484c0 13.622 11.043 24.665 24.665 24.665 13.622 0 24.665-11.043 24.665-24.665v-44.484c0-13.622-11.043-24.665-24.665-24.665z"/><path d="m377.955.007c-13.622 0-24.665 11.043-24.665 24.665v44.484c0 13.622 11.043 24.665 24.665 24.665 13.622 0 24.665-11.043 24.665-24.665v-44.484c0-13.622-11.043-24.665-24.665-24.665z"/></g><g fill="#ffd064"><path d="m144.19 91.642c-3.09 1.401-6.521 2.174-10.137 2.174-13.629 0-24.672-11.043-24.672-24.662v-44.482c0-13.629 11.043-24.672 24.672-24.672 3.616 0 7.046.773 10.137 2.174-8.571 3.863-14.535 12.485-14.535 22.498v44.482c0 10.013 5.964 18.625 14.535 22.488z"/><path d="m225.489 91.632c-3.09 1.411-6.521 2.184-10.137 2.184-13.629 0-24.662-11.043-24.662-24.662v-44.482c.001-13.629 11.034-24.672 24.663-24.672 3.616 0 7.046.773 10.137 2.184-8.571 3.853-14.535 12.475-14.535 22.488v44.482c-.001 10.003 5.964 18.625 14.534 22.478z"/><path d="m306.789 91.632c-3.09 1.411-6.521 2.184-10.137 2.184-13.619 0-24.662-11.043-24.662-24.662v-44.482c0-13.629 11.044-24.672 24.662-24.672 3.616 0 7.046.773 10.137 2.184-8.561 3.863-14.525 12.475-14.525 22.488v44.482c0 10.003 5.964 18.625 14.525 22.478z"/><path d="m388.088 91.632c-3.09 1.411-6.521 2.184-10.137 2.184-13.619 0-24.662-11.043-24.662-24.662v-44.482c.001-13.629 11.044-24.672 24.663-24.672 3.616 0 7.046.773 10.137 2.184-8.561 3.863-14.525 12.475-14.525 22.488v44.482c-.001 10.003 5.964 18.625 14.524 22.478z"/></g></g></svg>