<svg xmlns="http://www.w3.org/2000/svg" xmlns:xlink="http://www.w3.org/1999/xlink" viewBox="0 0 64 64"><defs><style>.cls-1{fill:url(#linear-gradient);}.cls-2{fill:url(#linear-gradient-2);}.cls-3{fill:url(#linear-gradient-3);}.cls-4{fill:#eab39b;}.cls-5{fill:url(#linear-gradient-4);}.cls-6{fill:#5b8dc9;}.cls-7{fill:url(#linear-gradient-5);}.cls-8{fill:url(#linear-gradient-6);}.cls-9{fill:#8a6762;}.cls-10{fill:url(#linear-gradient-7);}.cls-11{fill:url(#linear-gradient-8);}.cls-12{fill:#b8c0ce;}.cls-13{fill:#231f20;}</style><linearGradient id="linear-gradient" x1="32" y1="50" x2="32" y2="13.74" gradientUnits="userSpaceOnUse"><stop offset="0" stop-color="#f2c4b0"/><stop offset="1" stop-color="#ffe3d7"/></linearGradient><linearGradient id="linear-gradient-2" x1="51" y1="35" x2="51" y2="25" xlink:href="#linear-gradient"/><linearGradient id="linear-gradient-3" x1="13" y1="35" x2="13" y2="25" gradientTransform="translate(26 60) rotate(180)" xlink:href="#linear-gradient"/><linearGradient id="linear-gradient-4" x1="32" y1="64" x2="32" y2="55" gradientUnits="userSpaceOnUse"><stop offset="0" stop-color="#7aa8d7"/><stop offset="1" stop-color="#c3d2e7"/></linearGradient><linearGradient id="linear-gradient-5" y1="59" y2="48.83" xlink:href="#linear-gradient"/><linearGradient id="linear-gradient-6" x1="48.5" y1="27" x2="48.5" y2="12.15" gradientUnits="userSpaceOnUse"><stop offset="0" stop-color="#9b756d"/><stop offset="1" stop-color="#bc9388"/></linearGradient><linearGradient id="linear-gradient-7" x1="32" x2="32" y2="1" xlink:href="#linear-gradient-6"/><linearGradient id="linear-gradient-8" x1="32" y1="50" x2="32" y2="34" gradientUnits="userSpaceOnUse"><stop offset="0" stop-color="#d4d8e1"/><stop offset="1" stop-color="#f3f4f5"/></linearGradient></defs><title>Male Patient</title><g id="Male_Patient" data-name="Male Patient"><path class="cls-1" d="M48,13.74V34A16,16,0,0,1,32,50h0A16,16,0,0,1,16,34V14Z"/><path class="cls-2" d="M48,25h1.53A4.47,4.47,0,0,1,54,29.47v1.06A4.47,4.47,0,0,1,49.53,35H48a0,0,0,0,1,0,0V25A0,0,0,0,1,48,25Z"/><path class="cls-3" d="M10,25h1.53A4.47,4.47,0,0,1,16,29.47v1.06A4.47,4.47,0,0,1,11.53,35H10a0,0,0,0,1,0,0V25A0,0,0,0,1,10,25Z" transform="translate(26 60) rotate(-180)"/><path class="cls-4" d="M54,31a4,4,0,0,1-4,4H48V33h2a4,4,0,0,0,2.83-1.17,4.08,4.08,0,0,0,1-1.83A3.66,3.66,0,0,1,54,31Z"/><path class="cls-4" d="M16,33v2H14a4,4,0,0,1-4-4,3.66,3.66,0,0,1,.13-1A4,4,0,0,0,14,33Z"/><path class="cls-5" d="M6,64H6c1.8-5.41,6.4-9,11.54-9H46.46C51.6,55,56.2,58.59,58,64H6Z"/><path class="cls-6" d="M42,55c0,4.42-4.48,8-10,8s-10-3.58-10-8Z"/><path class="cls-7" d="M38,48.83V55c0,2.21-2.69,4-6,4s-6-1.79-6-4V48.83Z"/><path class="cls-4" d="M38,53.17V55c0,2.21-2.69,4-6,4s-6-1.79-6-4V53.17c0,2.21,2.69,4,6,4S38,55.38,38,53.17Z"/><path class="cls-8" d="M50.85,12.15A6.92,6.92,0,0,1,52,16V27a7,7,0,0,1-7-7V17.92Z"/><path class="cls-9" d="M52,25v2a7,7,0,0,1-7-7V18A7,7,0,0,0,52,25Z"/><path class="cls-4" d="M48,32v2a16,16,0,1,1-32,0V32a16,16,0,0,0,32,0Z"/><path class="cls-10" d="M20,15h0a7.24,7.24,0,0,0,6.47,4H40A12,12,0,0,0,52,7h0a6,6,0,0,0-6-6H28a10,10,0,0,0-8,4h0a8,8,0,0,0-8,8V27h0a8,8,0,0,0,8-8V15"/><path class="cls-9" d="M17.66,22.66A8,8,0,0,0,20,17v2a8,8,0,0,1-8,8V25A8,8,0,0,0,17.66,22.66Z"/><path class="cls-9" d="M52,7A12,12,0,0,1,40,19H26.47A7.24,7.24,0,0,1,20,15V13a7.24,7.24,0,0,0,6.47,4H40A12,12,0,0,0,51.94,6.2,5.29,5.29,0,0,1,52,7Z"/><path class="cls-11" d="M43,43c0,4-6,7-11,7s-11-3-11-7c0-5,2-9,11-9S43,38,43,43Z"/><path class="cls-12" d="M43,43c0,4-6,7-11,7s-11-3-11-7q0-.69.06-1.35C21.66,45.32,27.3,48,32,48s10.34-2.68,10.94-6.35Q43,42.31,43,43Z"/><path class="cls-13" d="M36,40H28a1,1,0,0,0,0,2h8a1,1,0,0,0,0-2Z"/><path class="cls-13" d="M36,44H28a1,1,0,0,0,0,2h8a1,1,0,0,0,0-2Z"/><ellipse class="cls-13" cx="24.5" cy="29" rx="1.5" ry="2"/><ellipse class="cls-13" cx="39.5" cy="29" rx="1.5" ry="2"/><path class="cls-13" d="M58.94,62.65A13.4,13.4,0,0,0,46.46,54H39V49.47A17,17,0,0,0,48.87,36H50a5,5,0,0,0,3-9V16a7.94,7.94,0,0,0-1-3.91A12.86,12.86,0,0,0,53,7a7,7,0,0,0-7-7H28a11.07,11.07,0,0,0-8.5,4A9,9,0,0,0,11,13V27a5,5,0,0,0,3,9h1.13A17,17,0,0,0,25,49.47V54H17.54A13.4,13.4,0,0,0,5.06,62.65a1,1,0,0,0,.59,1.29A1,1,0,0,0,6,64a1,1,0,0,0,.94-.65A11.37,11.37,0,0,1,17.54,56h3.53c.61,4.49,5.28,8,10.93,8s10.32-3.51,10.93-8h3.53a11.37,11.37,0,0,1,10.6,7.35A1,1,0,0,0,58,64a1,1,0,0,0,.35-.06A1,1,0,0,0,58.94,62.65ZM32,49c-.37,0-.73,0-1.1-.06C26.63,48.56,22,46.06,22,43c0-4.16,1.21-8,10-8s10,3.84,10,8c0,3.06-4.63,5.56-8.9,5.94C32.73,49,32.37,49,32,49ZM17,26.48A9,9,0,0,0,21,19V17.93A8.24,8.24,0,0,0,26.47,20H40a12.89,12.89,0,0,0,4-.64V20a8,8,0,0,0,3,6.24v.59c-1.13,3.35-3.72,8.51-6,8.51h0C39,33.77,36,33,32,33s-7,.77-8.94,2.34h0c-2.37,0-4.94-5.16-6-8.5ZM44,43a10.54,10.54,0,0,0-1.54-6c1.87-.82,3.42-3,4.54-5.13V34A14.92,14.92,0,0,1,44,43Zm6-9H49V28h1a3,3,0,0,1,0,6Zm1-18v9.92A6,6,0,0,1,46,20V18.52a13,13,0,0,0,4.75-4.23A5.75,5.75,0,0,1,51,16ZM13,13a7,7,0,0,1,7-7,1,1,0,0,0,.8-.4A9.05,9.05,0,0,1,28,2H46a5,5,0,0,1,5,5A11,11,0,0,1,40,18H26.47a6.21,6.21,0,0,1-5.58-3.45A1,1,0,0,0,19,15v4a7,7,0,0,1-6,6.93Zm1,21a3,3,0,0,1,0-6h1v6Zm3,0V31.93C18.11,34,19.65,36.2,21.53,37A10.59,10.59,0,0,0,20,43,14.92,14.92,0,0,1,17,34ZM30.68,50.93c.44,0,.88.07,1.32.07s.88,0,1.32-.07A17.21,17.21,0,0,0,37,50.25V55c0,1.63-2.29,3-5,3s-5-1.37-5-3V50.25A17.21,17.21,0,0,0,30.68,50.93ZM32,62c-4.52,0-8.27-2.61-8.9-6h2c.63,2.31,3.42,4,6.86,4s6.23-1.69,6.86-4h2C40.27,59.39,36.52,62,32,62Z"/><path class="cls-13" d="M22.54,25.88a2.75,2.75,0,0,1,3.9,0,1,1,0,0,0,.7.29,1,1,0,0,0,.71-.29,1,1,0,0,0,0-1.42,4.77,4.77,0,0,0-6.73,0,1,1,0,1,0,1.42,1.42Z"/><path class="cls-13" d="M37.56,25.88a2.75,2.75,0,0,1,3.9,0,1,1,0,0,0,.71.29,1,1,0,0,0,.71-.29,1,1,0,0,0,0-1.42,4.77,4.77,0,0,0-6.73,0,1,1,0,0,0,0,1.42A1,1,0,0,0,37.56,25.88Z"/></g></svg>